<?xml version="1.0" encoding="UTF-8" standalone="no"?>
<!-- Created with Inkscape (http://www.inkscape.org/) -->

<svg
   xmlns:dc="http://purl.org/dc/elements/1.1/"
   xmlns:cc="http://creativecommons.org/ns#"
   xmlns:rdf="http://www.w3.org/1999/02/22-rdf-syntax-ns#"
   xmlns:svg="http://www.w3.org/2000/svg"
   xmlns="http://www.w3.org/2000/svg"
   xmlns:sodipodi="http://sodipodi.sourceforge.net/DTD/sodipodi-0.dtd"
   xmlns:inkscape="http://www.inkscape.org/namespaces/inkscape"
   width="138.52879mm"
   height="39.609253mm"
   viewBox="0 0 490.85006 140.34774"
   id="svg2"
   version="1.1"
   inkscape:version="0.91 r13725"
   sodipodi:docname="drawing.svg">
  <defs
     id="defs4" />
  <sodipodi:namedview
     id="base"
     pagecolor="#ffffff"
     bordercolor="#666666"
     borderopacity="1.0"
     inkscape:pageopacity="0.0"
     inkscape:pageshadow="2"
     inkscape:zoom="0.9899495"
     inkscape:cx="139.18655"
     inkscape:cy="97.81938"
     inkscape:document-units="px"
     inkscape:current-layer="layer1"
     showgrid="false"
     inkscape:window-width="1680"
     inkscape:window-height="987"
     inkscape:window-x="-8"
     inkscape:window-y="-8"
     inkscape:window-maximized="1"
     fit-margin-top="5"
     fit-margin-left="5"
     fit-margin-right="5"
     fit-margin-bottom="5" />
  <metadata
     id="metadata7">
    <rdf:RDF>
      <cc:Work
         rdf:about="">
        <dc:format>image/svg+xml</dc:format>
        <dc:type
           rdf:resource="http://purl.org/dc/dcmitype/StillImage" />
        <dc:title></dc:title>
      </cc:Work>
    </rdf:RDF>
  </metadata>
  <g
     inkscape:label="Layer 1"
     inkscape:groupmode="layer"
     id="layer1"
     transform="translate(-81.111864,-71.045495)">
    <flowRoot
       xml:space="preserve"
       id="flowRoot4553"
       style="font-style:normal;font-weight:normal;font-size:40px;line-height:125%;font-family:sans-serif;letter-spacing:0px;word-spacing:0px;fill:#000000;fill-opacity:1;stroke:none;stroke-width:1px;stroke-linecap:butt;stroke-linejoin:miter;stroke-opacity:1"><flowRegion
         id="flowRegion4555"><rect
           id="rect4557"
           width="404.28571"
           height="42.857143"
           x="488.57144"
           y="53.073498" /></flowRegion><flowPara
         id="flowPara4559" /></flowRoot>    <g
       id="g4191"
       style="fill:#333333">
      <path
         d="m 149.02058,143.12234 c -1.17348,-1.17348 -1.17348,-3.0758 0,-4.24926 1.17346,-1.17348 3.07578,-1.17348 4.24926,0 1.17346,1.17346 1.17346,3.07578 0,4.24926 -1.17348,1.17347 -3.0758,1.17347 -4.24926,0 m 7.4276,0.11748 c 0.56013,-1.3273 0.59776,-2.81944 0.11812,-4.17074 l 0.5056,-0.50559 10.50407,1.51096 c 2.14052,0.30569 4.26549,-0.65034 5.45582,-2.45597 l 27.8003,-42.13824 c 0.92814,-1.33702 1.14102,-3.04464 0.56985,-4.56924 l -0.81388,-2.14897 -47.01773,47.01773 c -1.47397,-0.68475 -3.17445,-0.71524 -4.66723,-0.085 l -0.2739,-0.27389 1.49863,-10.49108 c 0.30635,-2.14117 -0.65035,-4.26614 -2.45531,-5.45647 l -42.13825,-27.8003 c -1.33702,-0.92814 -3.0453,-1.14102 -4.56924,-0.56986 l -2.136631,0.80156 46.965151,46.96581 c -0.58089,1.46422 -0.53351,3.11603 0.13435,4.55235 l -0.45302,0.45302 -10.49174,-1.49861 c -2.14053,-0.30636 -4.26549,0.65034 -5.45581,2.45531 L 101.727,186.97084 c -0.92876,1.33766 -1.14166,3.0453 -0.56985,4.56923 l 0.80155,2.13664 47.25789,-47.25787 c 1.31235,0.46537 2.75777,0.44525 4.05584,-0.0694 l 0.66915,0.66852 -1.51096,10.50405 c -0.30569,2.14054 0.65099,4.2655 2.45598,5.45648 l 42.13824,27.79965 c 1.33701,0.92878 3.04463,1.14167 4.56923,0.56987 l 2.14897,-0.81326 -47.29486,-47.29485 z"
         style="fill:#333333;fill-opacity:1;fill-rule:nonzero;stroke:none"
         id="path3584"
         inkscape:connector-curvature="0" />
      <g
         id="text4549"
         style="font-style:normal;font-weight:normal;font-size:102.78440094px;line-height:125%;font-family:sans-serif;letter-spacing:0px;word-spacing:0px;fill:#333333;fill-opacity:1;stroke:none;stroke-width:1px;stroke-linecap:butt;stroke-linejoin:miter;stroke-opacity:1"
         transform="matrix(1.0676143,0,0,0.93666785,6,16)">
        <path
           inkscape:connector-curvature="0"
           id="path4158"
           style="font-style:normal;font-variant:normal;font-weight:normal;font-stretch:condensed;font-family:'Roboto Condensed';-inkscape-font-specification:'Roboto Condensed, Condensed';fill:#333333"
           d="m 229.61203,136.19377 -27.15154,0 0,32.47144 -10.1881,0 0,-73.073288 41.70597,0 0,7.829278 -31.51787,0 0,24.99347 27.15154,0 0,7.7791 z" />
        <path
           inkscape:connector-curvature="0"
           id="path4160"
           style="font-style:normal;font-variant:normal;font-weight:normal;font-stretch:condensed;font-family:'Roboto Condensed';-inkscape-font-specification:'Roboto Condensed, Condensed';fill:#333333"
           d="m 253.65194,160.9363 28.50661,0 0,7.72891 -38.69471,0 0,-73.073288 10.1881,0 0,65.344378 z" />
        <path
           inkscape:connector-curvature="0"
           id="path4162"
           style="font-style:normal;font-variant:normal;font-weight:normal;font-stretch:condensed;font-family:'Roboto Condensed';-inkscape-font-specification:'Roboto Condensed, Condensed';fill:#333333"
           d="m 299.57368,131.07462 0.30113,0 14.95593,-35.482698 11.29223,0 -21.48033,46.774928 0,26.29836 -10.13792,0 0,-26.9508 -21.22939,-46.122488 11.3926,0 14.90575,35.482698 z" />
        <path
           inkscape:connector-curvature="0"
           id="path4164"
           style="font-style:normal;font-variant:normal;font-weight:normal;font-stretch:condensed;font-family:'Roboto Condensed';-inkscape-font-specification:'Roboto Condensed, Condensed';fill:#333333"
           d="m 347.252,95.591922 17.06382,59.622978 0.30112,0 17.11401,-59.622978 13.14917,0 0,73.073288 -10.08772,0 0,-28.05493 0.90337,-28.1051 -0.30112,-0.0502 -17.5657,56.21022 -6.72515,0 -17.5155,-56.16003 -0.30113,0.0502 0.95357,28.05492 0,28.05493 -10.08773,0 0,-73.073288 13.09899,0 z" />
        <path
           inkscape:connector-curvature="0"
           id="path4166"
           style="font-style:normal;font-variant:normal;font-weight:normal;font-stretch:condensed;font-family:'Roboto Condensed';-inkscape-font-specification:'Roboto Condensed, Condensed';fill:#333333"
           d="m 455.40647,142.21629 q 0,12.99861 -6.72515,20.27583 -6.72515,7.22703 -18.01738,7.22703 -11.14167,0 -17.71626,-7.22703 -6.57458,-7.27722 -6.57458,-20.27583 l 0,-20.07508 q 0,-12.94842 6.57458,-20.27583 6.62478,-7.3274 17.71626,-7.3274 11.24204,0 17.9672,7.3274 6.77533,7.32741 6.77533,20.27583 l 0,20.07508 z m -10.13791,-20.22564 q 0,-9.53566 -3.81427,-14.45406 -3.81426,-4.96858 -10.79035,-4.96858 -6.87571,0 -10.53942,4.96858 -3.6637,4.9184 -3.6637,14.45406 l 0,20.22564 q 0,9.63604 3.6637,14.60462 3.71389,4.96858 10.53942,4.96858 7.02628,0 10.79035,-4.91839 3.81427,-4.96858 3.81427,-14.65481 l 0,-20.22564 z" />
        <path
           inkscape:connector-curvature="0"
           id="path4168"
           style="font-style:normal;font-variant:normal;font-weight:normal;font-stretch:condensed;font-family:'Roboto Condensed';-inkscape-font-specification:'Roboto Condensed, Condensed';fill:#333333"
           d="m 467.10021,168.66521 0,-73.073288 20.07508,0 q 11.64354,0 18.97095,8.782848 7.37759,8.78285 7.37759,22.58446 l 0,10.38885 q 0,13.85181 -7.37759,22.58447 -7.32741,8.73266 -18.97095,8.73266 l -20.07508,0 z m 10.1881,-65.24401 0,57.5151 9.53566,0 q 7.67872,0 12.09524,-6.57459 4.4667,-6.57458 4.4667,-17.01363 l 0,-10.48922 q 0,-10.33867 -4.4667,-16.86307 -4.41652,-6.57459 -12.09524,-6.57459 l -9.53566,0 z" />
        <g
           id="text4178"
           style="font-style:normal;font-weight:normal;font-size:40px;line-height:125%;font-family:sans-serif;letter-spacing:0px;word-spacing:0px;fill:#333333;fill-opacity:1;stroke:none;stroke-width:1px;stroke-linecap:butt;stroke-linejoin:miter;stroke-opacity:1"
           transform="matrix(0,-0.53018259,0.46515394,0,406.87035,399.85003)">
          <path
             style="fill:#333333"
             inkscape:connector-curvature="0"
             id="path4183"
             d="m 465.00696,188.77014 -4.66797,0 0,-5.5664 4.66797,0 0,5.5664 z" />
          <path
             style="fill:#333333"
             inkscape:connector-curvature="0"
             id="path4185"
             d="m 496.02258,188.77014 -4.78515,0 -13.78907,-26.01562 0,26.01562 -3.61328,0 0,-29.08203 5.9961,0 12.57812,23.75 0,-23.75 3.61328,0 0,29.08203 z" />
          <path
             style="fill:#333333"
             inkscape:connector-curvature="0"
             id="path4187"
             d="m 522.91711,188.77014 -19.16015,0 0,-29.08203 19.16015,0 0,3.4375 -15.29296,0 0,7.96875 15.29296,0 0,3.4375 -15.29296,0 0,10.80078 15.29296,0 0,3.4375 z" />
          <path
             style="fill:#333333"
             inkscape:connector-curvature="0"
             id="path4189"
             d="m 549.81165,163.12561 -10.39063,0 0,25.64453 -3.86719,0 0,-25.64453 -10.39062,0 0,-3.4375 24.64844,0 0,3.4375 z" />
        </g>
      </g>
      <text
         transform="scale(1.166438,0.8573109)"
         sodipodi:linespacing="125%"
         id="text4149"
         y="221.93251"
         x="262.68765"
         style="font-style:normal;font-weight:normal;font-size:16.38844109px;line-height:125%;font-family:sans-serif;letter-spacing:0px;word-spacing:0px;fill:#333333;fill-opacity:1;stroke:none;stroke-width:1px;stroke-linecap:butt;stroke-linejoin:miter;stroke-opacity:1"
         xml:space="preserve"><tspan
           id="tspan4153"
           y="221.93251"
           x="262.68765"
           sodipodi:role="line">FLIGHT SYSTEMS</tspan></text>
    </g>
  </g>
</svg>
